<?xml version="1.0" standalone="no"?>
<!DOCTYPE svg PUBLIC "-//W3C//DTD SVG 20010904//EN"
 "http://www.w3.org/TR/2001/REC-SVG-20010904/DTD/svg10.dtd">
<svg version="1.0" xmlns="http://www.w3.org/2000/svg"
 width="1761.000000pt" height="774.000000pt" viewBox="0 0 1761.000000 774.000000"
 preserveAspectRatio="xMidYMid meet">

<g transform="translate(0.000000,774.000000) scale(0.100000,-0.100000)"
fill="#000000" stroke="none">
<path d="M13315 5183 c-144 -5 -448 -33 -525 -49 -167 -33 -331 -143 -426
-286 -90 -135 -120 -270 -144 -658 -26 -425 6 -964 68 -1145 58 -168 177 -302
337 -380 108 -53 183 -69 415 -89 381 -32 733 -29 1083 10 224 24 339 71 463
187 209 195 248 368 248 1097 0 421 -13 632 -50 775 -28 108 -90 212 -178 301
-134 134 -245 182 -483 208 -252 28 -546 39 -808 29z m658 -578 c76 -20 128
-56 171 -118 61 -89 69 -123 74 -312 4 -183 -7 -265 -48 -346 -32 -61 -90
-120 -145 -145 -45 -21 -65 -24 -190 -24 l-140 -1 275 -269 275 -269 -174 -1
-173 0 -264 256 c-286 278 -311 310 -301 387 4 31 15 50 41 74 l36 33 195 0
c213 0 245 6 282 54 48 61 56 301 14 385 -38 74 -47 76 -382 79 l-297 3 -28
-25 -29 -24 -3 -611 -2 -611 -145 0 -146 0 3 673 c3 739 0 696 65 761 65 66
63 66 543 66 354 0 447 -3 493 -15z"/>
<path d="M9691 5160 c-46 -11 -82 -40 -103 -81 -16 -31 -18 -79 -18 -556 l0
-523 105 0 105 0 0 423 c0 488 2 500 62 406 19 -30 133 -210 253 -400 120
-189 227 -356 239 -372 31 -42 92 -67 165 -67 67 0 102 14 141 55 l25 27 3
539 3 539 -106 0 -105 0 0 -435 c0 -341 -3 -435 -12 -435 -7 0 -128 181 -267
403 -140 221 -270 416 -288 434 -21 20 -50 35 -83 42 -57 12 -70 12 -119 1z"/>
<path d="M14868 5142 c-58 -35 -75 -124 -35 -183 27 -41 60 -59 107 -59 47 0
80 18 107 59 40 60 23 149 -36 184 -37 22 -108 21 -143 -1z m145 -42 c37 -41
37 -96 1 -139 -22 -27 -32 -31 -74 -31 -42 0 -52 4 -74 31 -62 74 -4 188 89
174 17 -3 42 -19 58 -35z"/>
<path d="M14890 5035 c0 -51 3 -65 15 -65 8 0 15 9 15 20 0 11 4 20 8 20 5 0
17 -9 27 -20 10 -11 25 -20 33 -20 12 0 11 4 -4 21 -17 19 -18 21 -1 30 43 25
7 79 -54 79 l-39 0 0 -65z m78 18 c-2 -10 -13 -19 -26 -21 -17 -3 -22 2 -22
17 0 16 6 21 26 21 19 0 25 -5 22 -17z"/>
<path d="M7513 5129 c-30 -14 -48 -33 -62 -63 -20 -41 -21 -59 -21 -554 l0
-512 110 0 110 0 0 469 0 470 27 21 c27 21 35 21 248 18 238 -4 259 -8 289
-59 40 -68 28 -261 -19 -309 -25 -24 -30 -25 -196 -30 l-171 -5 -25 -29 c-21
-24 -24 -37 -20 -72 6 -57 26 -80 246 -291 l189 -183 136 0 136 0 -220 205
-220 205 85 0 c124 0 180 15 230 61 54 50 83 116 96 222 26 203 -22 362 -130
425 l-46 27 -365 3 c-354 2 -366 2 -407 -19z"/>
<path d="M8641 5133 c-22 -11 -40 -31 -52 -57 -17 -38 -19 -76 -19 -504 0
-511 0 -514 62 -552 32 -19 49 -20 446 -20 l412 0 0 90 0 90 -338 0 c-250 0
-341 3 -350 12 -8 8 -12 58 -12 160 l0 148 340 0 341 0 -3 88 -3 87 -338 3
-338 2 3 137 c3 135 3 138 28 150 19 9 108 13 348 13 l322 0 0 85 0 85 -407 0
c-360 0 -412 -2 -442 -17z"/>
<path d="M10710 5065 l0 -85 225 0 225 0 0 -490 0 -490 110 0 110 0 0 490 0
490 225 0 225 0 0 85 0 85 -560 0 -560 0 0 -85z"/>
<path d="M3080 3739 c-37 -15 -60 -39 -85 -89 -17 -33 -411 -968 -442 -1048
-4 -10 20 -12 112 -10 l117 3 56 140 57 140 275 0 274 0 29 -70 c16 -38 43
-103 59 -142 l30 -73 115 0 c106 0 115 1 109 18 -56 145 -445 1055 -462 1078
-12 17 -38 39 -57 48 -39 18 -146 21 -187 5z m107 -211 c11 -14 193 -468 193
-480 0 -5 -94 -8 -210 -8 -115 0 -210 4 -210 9 0 9 175 443 191 472 11 22 23
24 36 7z"/>
<path d="M6261 3734 c-126 -27 -234 -101 -281 -194 -47 -91 -62 -182 -62 -375
0 -193 15 -283 62 -375 51 -100 152 -172 285 -202 93 -20 422 -17 505 6 137
37 220 100 266 201 48 105 58 168 59 365 0 252 -26 356 -115 453 -95 104 -212
137 -482 136 -108 0 -197 -6 -237 -15z m429 -181 c39 -11 66 -27 96 -57 59
-59 75 -117 81 -296 8 -248 -29 -357 -142 -415 -58 -30 -60 -30 -219 -30 -177
0 -203 7 -268 64 -19 17 -45 53 -56 79 -46 107 -52 365 -12 494 23 76 58 121
115 148 81 39 286 46 405 13z"/>
<path d="M8874 3736 c-17 -8 -43 -29 -57 -47 -20 -27 -467 -1073 -467 -1094 0
-3 51 -5 114 -5 l114 0 58 145 58 145 275 -2 275 -3 57 -140 58 -140 225 -3
226 -2 0 463 c0 402 2 465 16 485 15 22 19 22 254 22 l238 0 31 -26 c41 -34
54 -89 49 -194 -6 -93 -23 -139 -60 -157 -14 -7 -86 -13 -178 -15 -174 -3
-203 -12 -215 -68 -15 -69 -5 -84 217 -302 l211 -208 135 0 136 0 -27 28 c-14
15 -111 106 -215 202 l-190 175 117 5 c136 6 177 22 228 89 52 67 68 135 67
291 0 157 -18 220 -81 285 -68 70 -68 70 -457 73 -395 4 -413 1 -464 -66 l-27
-35 -5 -515 -5 -514 -215 513 c-118 282 -227 531 -241 554 -15 23 -42 49 -62
58 -43 21 -149 22 -193 3z m210 -447 c53 -131 96 -241 96 -244 0 -3 -96 -5
-214 -5 l-215 0 91 223 c49 122 96 237 104 256 11 27 17 31 28 22 8 -7 58
-120 110 -252z"/>
<path d="M3777 3734 c-11 -11 -8 -750 3 -829 22 -151 109 -254 253 -301 73
-24 98 -27 232 -28 214 -1 305 25 399 114 108 102 117 159 114 665 l-3 380
-107 3 -106 3 -4 -408 c-4 -434 -6 -451 -55 -507 -12 -14 -41 -35 -65 -48 -38
-20 -57 -23 -163 -23 -127 0 -159 9 -213 59 -57 51 -57 47 -62 501 l-5 420
-106 3 c-58 1 -108 -1 -112 -4z"/>
<path d="M4820 3650 l0 -90 220 0 220 0 0 -485 0 -485 115 0 115 0 0 485 0
485 223 2 222 3 0 85 0 85 -557 3 -558 2 0 -90z"/>
<path d="M7545 3721 c-23 -10 -50 -31 -60 -47 -19 -28 -20 -52 -23 -556 l-3
-528 111 0 110 0 0 200 0 200 284 0 c254 0 291 2 348 20 73 22 116 61 147 131
44 100 50 281 14 413 -13 45 -28 72 -62 107 -74 76 -95 79 -490 79 -304 0
-340 -2 -376 -19z m650 -175 c54 -23 70 -64 70 -181 0 -81 -4 -106 -20 -132
-35 -59 -56 -63 -324 -63 l-241 0 0 176 c0 102 4 183 10 195 10 18 24 19 241
19 176 0 238 -3 264 -14z"/>
<path d="M10730 3165 l0 -575 110 0 110 0 0 575 0 575 -110 0 -110 0 0 -575z"/>
<path d="M11273 3512 c-238 -232 -263 -264 -263 -334 1 -79 24 -107 368 -427
l174 -161 139 0 140 0 -198 176 c-425 379 -434 388 -401 446 7 13 110 115 228
227 118 112 237 226 265 253 l50 48 -135 0 -135 -1 -232 -227z"/>
</g>
</svg>
